<svg xmlns="http://www.w3.org/2000/svg" xmlns:xlink="http://www.w3.org/1999/xlink" width="140" zoomAndPan="magnify" viewBox="0 0 104.88 30.000001" height="40" preserveAspectRatio="xMidYMid meet" version="1.0"><defs><filter x="0%" y="0%" width="100%" height="100%" id="fe25924c56"><feColorMatrix values="0 0 0 0 1 0 0 0 0 1 0 0 0 0 1 0 0 0 1 0" color-interpolation-filters="sRGB"/></filter><g/><clipPath id="39b5b836f8"><path d="M 2 0 L 103.128906 0 L 103.128906 29.03125 L 2 29.03125 Z M 2 0 " clip-rule="nonzero"/></clipPath><mask id="b3618f9809"><g filter="url(#fe25924c56)"><rect x="-10.488" width="125.856" fill="#000000" y="-3" height="36.000001" fill-opacity="0.17"/></g></mask><clipPath id="3130c2def8"><rect x="0" width="102" y="0" height="30"/></clipPath></defs><g clip-path="url(#39b5b836f8)"><g mask="url(#b3618f9809)"><g transform="matrix(1, 0, 0, 1, 2, 0.000000000000005692)"><g clip-path="url(#3130c2def8)"><g fill="#000000" fill-opacity="1"><g transform="translate(0.955118, 20.197472)"><g><path d="M 3.8125 -14.15625 L 3.8125 -8.859375 L 9.59375 -8.859375 L 9.59375 -7.15625 L 3.8125 -7.15625 L 3.8125 -1.703125 L 10.265625 -1.703125 L 10.265625 0 L 1.75 0 L 1.75 -15.859375 L 10.265625 -15.859375 L 10.265625 -14.15625 Z M 3.8125 -14.15625 "/></g></g></g><g fill="#000000" fill-opacity="1"><g transform="translate(12.613299, 20.197472)"><g><path d="M 3.8125 -1.6875 L 9.359375 -1.6875 L 9.359375 0 L 1.75 0 L 1.75 -15.828125 L 3.8125 -15.828125 Z M 3.8125 -1.6875 "/></g></g></g><g fill="#000000" fill-opacity="1"><g transform="translate(22.430726, 20.197472)"><g><path d="M 0.984375 -7.921875 C 0.984375 -9.472656 1.328125 -10.863281 2.015625 -12.09375 C 2.710938 -13.332031 3.660156 -14.300781 4.859375 -15 C 6.066406 -15.695312 7.410156 -16.046875 8.890625 -16.046875 C 10.609375 -16.046875 12.109375 -15.628906 13.390625 -14.796875 C 14.679688 -13.960938 15.625 -12.78125 16.21875 -11.25 L 13.75 -11.25 C 13.3125 -12.195312 12.675781 -12.925781 11.84375 -13.4375 C 11.019531 -13.957031 10.035156 -14.21875 8.890625 -14.21875 C 7.773438 -14.21875 6.78125 -13.957031 5.90625 -13.4375 C 5.03125 -12.925781 4.34375 -12.195312 3.84375 -11.25 C 3.34375 -10.3125 3.09375 -9.203125 3.09375 -7.921875 C 3.09375 -6.671875 3.34375 -5.570312 3.84375 -4.625 C 4.34375 -3.675781 5.03125 -2.941406 5.90625 -2.421875 C 6.78125 -1.910156 7.773438 -1.65625 8.890625 -1.65625 C 10.035156 -1.65625 11.019531 -1.910156 11.84375 -2.421875 C 12.675781 -2.929688 13.3125 -3.660156 13.75 -4.609375 L 16.21875 -4.609375 C 15.625 -3.097656 14.679688 -1.925781 13.390625 -1.09375 C 12.109375 -0.269531 10.609375 0.140625 8.890625 0.140625 C 7.410156 0.140625 6.066406 -0.203125 4.859375 -0.890625 C 3.660156 -1.585938 2.710938 -2.546875 2.015625 -3.765625 C 1.328125 -4.992188 0.984375 -6.378906 0.984375 -7.921875 Z M 0.984375 -7.921875 "/></g></g></g><g fill="#000000" fill-opacity="1"><g transform="translate(39.974838, 20.197472)"><g><path d="M 11.109375 -3.515625 L 4.203125 -3.515625 L 2.9375 0 L 0.75 0 L 6.46875 -15.75 L 8.859375 -15.75 L 14.5625 0 L 12.375 0 Z M 10.515625 -5.203125 L 7.65625 -13.203125 L 4.796875 -5.203125 Z M 10.515625 -5.203125 "/></g></g></g><g fill="#000000" fill-opacity="1"><g transform="translate(55.291845, 20.197472)"><g><path d="M 14.203125 0 L 12.125 0 L 3.8125 -12.609375 L 3.8125 0 L 1.75 0 L 1.75 -15.859375 L 3.8125 -15.859375 L 12.125 -3.265625 L 12.125 -15.859375 L 14.203125 -15.859375 Z M 14.203125 0 "/></g></g></g><g fill="#000000" fill-opacity="1"><g transform="translate(71.267902, 20.197472)"><g><path d="M 11.109375 -3.515625 L 4.203125 -3.515625 L 2.9375 0 L 0.75 0 L 6.46875 -15.75 L 8.859375 -15.75 L 14.5625 0 L 12.375 0 Z M 10.515625 -5.203125 L 7.65625 -13.203125 L 4.796875 -5.203125 Z M 10.515625 -5.203125 "/></g></g></g><g fill="#000000" fill-opacity="1"><g transform="translate(86.584909, 20.197472)"><g><path d="M 6.765625 0.15625 C 5.722656 0.15625 4.785156 -0.0234375 3.953125 -0.390625 C 3.128906 -0.765625 2.484375 -1.28125 2.015625 -1.9375 C 1.546875 -2.601562 1.304688 -3.363281 1.296875 -4.21875 L 3.5 -4.21875 C 3.570312 -3.476562 3.875 -2.851562 4.40625 -2.34375 C 4.945312 -1.84375 5.734375 -1.59375 6.765625 -1.59375 C 7.753906 -1.59375 8.53125 -1.835938 9.09375 -2.328125 C 9.664062 -2.816406 9.953125 -3.445312 9.953125 -4.21875 C 9.953125 -4.832031 9.785156 -5.328125 9.453125 -5.703125 C 9.117188 -6.078125 8.703125 -6.363281 8.203125 -6.5625 C 7.703125 -6.757812 7.023438 -6.972656 6.171875 -7.203125 C 5.128906 -7.472656 4.289062 -7.742188 3.65625 -8.015625 C 3.03125 -8.285156 2.492188 -8.710938 2.046875 -9.296875 C 1.609375 -9.878906 1.390625 -10.664062 1.390625 -11.65625 C 1.390625 -12.519531 1.609375 -13.285156 2.046875 -13.953125 C 2.484375 -14.617188 3.097656 -15.132812 3.890625 -15.5 C 4.691406 -15.863281 5.609375 -16.046875 6.640625 -16.046875 C 8.117188 -16.046875 9.332031 -15.671875 10.28125 -14.921875 C 11.226562 -14.179688 11.757812 -13.195312 11.875 -11.96875 L 9.609375 -11.96875 C 9.535156 -12.570312 9.21875 -13.101562 8.65625 -13.5625 C 8.09375 -14.03125 7.347656 -14.265625 6.421875 -14.265625 C 5.566406 -14.265625 4.863281 -14.039062 4.3125 -13.59375 C 3.769531 -13.144531 3.5 -12.519531 3.5 -11.71875 C 3.5 -11.144531 3.660156 -10.675781 3.984375 -10.3125 C 4.304688 -9.945312 4.707031 -9.671875 5.1875 -9.484375 C 5.664062 -9.296875 6.335938 -9.082031 7.203125 -8.84375 C 8.242188 -8.550781 9.082031 -8.265625 9.71875 -7.984375 C 10.351562 -7.703125 10.898438 -7.269531 11.359375 -6.6875 C 11.816406 -6.101562 12.046875 -5.3125 12.046875 -4.3125 C 12.046875 -3.539062 11.835938 -2.8125 11.421875 -2.125 C 11.015625 -1.445312 10.410156 -0.894531 9.609375 -0.46875 C 8.804688 -0.0507812 7.859375 0.15625 6.765625 0.15625 Z M 6.765625 0.15625 "/></g></g></g></g></g></g></g></svg>